<svg id="Layer_1" data-name="Layer 1" xmlns="http://www.w3.org/2000/svg" viewBox="0 0 561.66 166.36"><defs><style>.cls-1{fill:#f2f2ed;}</style></defs><path class="cls-1" d="M459.87,516.63c-3.12,0-5.83-2-5.83-4.86a3.87,3.87,0,0,1,3.89-4c3.33,0,3.47,3.54,5.35,3.54s3.39-1.91,6-8.16l-12.71-28.89c-.62-1.46-1-1.53-3.75-1.6v-3h17.43v3.06c-3.4.07-4.17.14-4.17,1a3.69,3.69,0,0,0,.35,1.39l7,17.78h.21L481,475a3.69,3.69,0,0,0,.35-1.39c0-.83-.76-.9-4.17-1v-3.06h12.15v3.06c-2.78.07-3.06.14-3.68,1.6l-12.76,29.68C470.14,510.45,466,516.63,459.87,516.63Z" transform="translate(0 -427.17)"/><path class="cls-1" d="M211.61,540.79h-3.06c-2.43-8.68-3.19-11.88-9.79-11.88H188.55v17.15h3.61c6.11,0,6.39-.42,7.15-7.08h3v17.64h-2.71c-.83-6.74-1.32-7.08-7.43-7.08h-3.61v18.12h9.31c7.85,0,10.35-1.8,13.4-13h3.19L213,571.2H173.27V568c5.28,0,5.9-.35,5.9-1.94V530.52c0-1.6-.62-1.94-5.9-1.94v-3.19H211Z" transform="translate(0 -427.17)"/><path class="cls-1" d="M237.54,566.55c-3.19,3.33-7.15,5.35-11.11,5.35-4.86,0-8.26-3.12-8.26-7.57,0-6.46,6.46-10.14,19-13.54V547c0-3.82-1.74-5.76-5.28-5.76-2.5,0-4.79,1.18-4.79,2.92,0,.7.49,1.46.49,2.57a3.89,3.89,0,0,1-4.17,4,4.11,4.11,0,0,1-4.24-4.31c0-5.07,7.43-9,15.28-9,6.94,0,11.32,3.06,11.32,9.51v17.57c0,1.8.9,2.57,1.94,2.57a4.29,4.29,0,0,0,3.12-1.53l1.6,2.22a10.64,10.64,0,0,1-7.92,4.1C241.16,571.9,238.73,569.89,237.54,566.55Zm-10.76-4.3c0,3,1.88,4.58,4.38,4.58,2.15,0,4-1,6-2.71V554.05C231.09,555.65,226.78,557.74,226.78,562.25Z" transform="translate(0 -427.17)"/><path class="cls-1" d="M262.68,545.65c0,7,18.06,2.71,18.06,15.07,0,6.81-6.67,11.18-14.31,11.18a22.74,22.74,0,0,1-11.67-3.06l-.76-8.75h3.06c1.81,6.25,5.35,8.12,9.86,8.12,3.26,0,6.25-1.67,6.25-4.72,0-7.78-18-2.92-18-15.28,0-6,5.56-10.76,13.19-10.76a20.88,20.88,0,0,1,10,2.5v8.19h-2.78c-1-4.58-3.47-7-7.64-7C265,541.14,262.68,542.8,262.68,545.65Z" transform="translate(0 -427.17)"/><path class="cls-1" d="M296.81,571.9c-5.56,0-9.65-3.19-9.65-8.4V542h-4.44v-3.82h4.44v-8.47l8.68-2.57v11h10.07V542H295.84v20c0,3.19,1.74,4.79,4.58,4.79,2.15,0,3.89-1,5.9-3.19l2.22,2.57C305.49,569.75,301.74,571.9,296.81,571.9Z" transform="translate(0 -427.17)"/><path class="cls-1" d="M359.86,571.21H321.94V568c5.28,0,5.9-.35,5.9-1.94V530.53c0-1.6-.62-1.94-5.9-1.94V525.4h21.18v3.19c-5.21,0-5.9.35-5.9,1.94v37.15h7.5c7.85,0,10.42-1.8,13.4-13h3.19Z" transform="translate(0 -427.17)"/><path class="cls-1" d="M381.21,537.46c9.24,0,16.74,7.08,16.74,17.22s-7.5,17.22-16.74,17.22-16.67-7.08-16.67-17.22S372,537.46,381.21,537.46Zm0,3.89c-4.79,0-7.43,4.93-7.43,13.33S376.42,568,381.21,568s7.5-4.86,7.5-13.33S386.07,541.35,381.21,541.35Z" transform="translate(0 -427.17)"/><path class="cls-1" d="M415.56,571.21H399v-3.06c3.54,0,4-.14,4-1.39V546.49a2.3,2.3,0,0,0-1.6-2.5l-2.71-1.32v-1.88L410,537.46h1.6v6.32c2.22-2.78,6.46-6.32,11.6-6.32,6.53,0,9.72,5,9.72,11.18v18.12c0,1.25.35,1.39,4,1.39v3.06h-16.6v-3.06c3.54,0,3.89-.14,3.89-1.39V550.23c0-4.38-1.74-7-5.62-7a10,10,0,0,0-6.94,3.19v20.35c0,1.25.42,1.39,4,1.39v3.06Z" transform="translate(0 -427.17)"/><path class="cls-1" d="M492.51,537.46c9.24,0,16.74,7.08,16.74,17.22s-7.5,17.22-16.74,17.22-16.67-7.08-16.67-17.22S483.35,537.46,492.51,537.46Zm0,3.89c-4.79,0-7.43,4.93-7.43,13.33S487.72,568,492.51,568s7.5-4.86,7.5-13.33S497.38,541.35,492.51,541.35Z" transform="translate(0 -427.17)"/><path class="cls-1" d="M527.15,571.21h-16.6v-3.06c3.54,0,4-.14,4-1.39V546.49a2.3,2.3,0,0,0-1.6-2.5l-2.71-1.32v-1.88l11.39-3.33h1.6v6.32c2.22-2.78,6.46-6.32,11.6-6.32,6.53,0,9.72,5,9.72,11.18v18.12c0,1.25.35,1.39,4,1.39v3.06h-16.6v-3.06c3.54,0,3.89-.14,3.89-1.39V550.23c0-4.38-1.74-7-5.62-7a10,10,0,0,0-6.94,3.19v20.35c0,1.25.42,1.39,4,1.39v3.06Z" transform="translate(0 -427.17)"/><path class="cls-1" d="M202.82,460v-3.19H219.9V460c-5.62,0-6.32.35-6.32,1.94V486c0,11-8.06,17.29-17.64,17.29-11.39,0-19-6.32-19-17.15V461.94c0-1.6-.69-1.94-6-1.94v-3.19h21.18V460c-5.21,0-5.9.35-5.9,1.94v23.33c0,9.24,4.17,13.26,11.32,13.26s11.53-4.72,11.53-13.26V461.94C209.13,460.35,208.51,460,202.82,460Z" transform="translate(0 -427.17)"/><path class="cls-1" d="M236.24,502.64h-16.6v-3.06c3.54,0,4-.14,4-1.39V477.91a2.3,2.3,0,0,0-1.6-2.5l-2.71-1.32v-1.88l11.39-3.33h1.6v6.32c2.22-2.78,6.46-6.32,11.6-6.32,6.53,0,9.72,5,9.72,11.18v18.12c0,1.25.35,1.39,4,1.39v3.06H241v-3.06c3.54,0,3.89-.14,3.89-1.39V481.65c0-4.38-1.74-7-5.62-7a10,10,0,0,0-6.94,3.19v20.35c0,1.25.42,1.39,4,1.39v3.07Z" transform="translate(0 -427.17)"/><path class="cls-1" d="M263.44,475.42l-2.71-1.32v-1.88l11.39-3.33h1.6v29.3c0,1.25.42,1.39,4,1.39v3.06h-16.6v-3.06c3.54,0,4-.14,4-1.39V477.91A2.3,2.3,0,0,0,263.44,475.42Zm5.9-23.13a5.49,5.49,0,1,1-5.49,5.49A5.35,5.35,0,0,1,269.34,452.29Z" transform="translate(0 -427.17)"/><path class="cls-1" d="M314.87,469.59v3.06c-2.78.07-3.12.14-3.68,1.6L298.9,503h-4.65L282,474.24c-.62-1.46-1-1.53-3.75-1.6v-3.05h17.43v3.06c-3.4.07-4.17.14-4.17,1a3.69,3.69,0,0,0,.35,1.39l6.88,18.47h.28l7.5-18.47a3.69,3.69,0,0,0,.35-1.39c0-.83-.76-.9-4.17-1v-3.06Z" transform="translate(0 -427.17)"/><path class="cls-1" d="M330.51,503.33c-8.61,0-16.32-6.25-16.32-16.67,0-10,7.36-17.78,16.46-17.78,9.31,0,13.82,6.81,13.82,15.07v1.88H322.8c.28,7.92,4.37,12.29,10.14,12.29,3.75,0,6.11-1.53,8.68-5.14l2.85,2.08A15.19,15.19,0,0,1,330.51,503.33Zm-7.57-21H336.2c0-5.21-1.32-9.51-5.83-9.51C326.34,472.85,323.56,476.32,322.94,482.36Z" transform="translate(0 -427.17)"/><path class="cls-1" d="M366.72,502.64H348v-3.06c3.54,0,4-.14,4-1.39V477.91a2.3,2.3,0,0,0-1.6-2.5l-2.71-1.32v-1.88l11.39-3.33h1.6v9.17c2.22-3.75,6.32-9.17,10.28-9.17a4.94,4.94,0,0,1,5.28,5.21,4.46,4.46,0,0,1-4.37,4.65c-2.71,0-3.33-2.43-5.07-2.43s-4.51,2.78-6.11,5.28v16.53c0,1.32.56,1.46,6,1.46v3.06Z" transform="translate(0 -427.17)"/><path class="cls-1" d="M386.76,477.09c0,7,18.05,2.71,18.05,15.07,0,6.81-6.67,11.18-14.3,11.18a22.74,22.74,0,0,1-11.67-3.06l-.76-8.75h3.06c1.81,6.25,5.35,8.12,9.86,8.12,3.26,0,6.25-1.67,6.25-4.72,0-7.78-18-2.92-18-15.28,0-6,5.56-10.76,13.19-10.76a20.88,20.88,0,0,1,10,2.5v8.2h-2.78c-1-4.58-3.47-7-7.64-7C389.06,472.57,386.76,474.24,386.76,477.09Z" transform="translate(0 -427.17)"/><path class="cls-1" d="M411.47,475.42l-2.71-1.32v-1.88l11.39-3.33h1.6v29.3c0,1.25.42,1.39,4,1.39v3.06h-16.6v-3.06c3.54,0,4-.14,4-1.39V477.91A2.31,2.31,0,0,0,411.47,475.42Zm5.9-23.13a5.49,5.49,0,1,1-5.49,5.49A5.35,5.35,0,0,1,417.37,452.29Z" transform="translate(0 -427.17)"/><path class="cls-1" d="M513.73,468.89c9.24,0,16.74,7.08,16.74,17.22s-7.5,17.22-16.74,17.22-16.67-7.08-16.67-17.22S504.57,468.89,513.73,468.89Zm0,3.89c-4.79,0-7.43,4.93-7.43,13.33s2.64,13.33,7.43,13.33,7.5-4.86,7.5-13.33S518.6,472.78,513.73,472.78Z" transform="translate(0 -427.17)"/><path class="cls-1" d="M551.73,502.64H533.05v-3.06c3.54,0,4-.14,4-1.39V473.4h-4.79v-3.81H537v-1.94a17,17,0,0,1,17.08-17.08c4.44,0,7.57,1.74,7.57,4.72a3.62,3.62,0,0,1-3.89,3.75c-3.75,0-4.3-4.38-7.08-4.38-2.43,0-5,2.5-5,7.92v7h7.78v3.82h-7.78v24.72c0,1.32.56,1.46,6,1.46Z" transform="translate(0 -427.17)"/><path class="cls-1" d="M441.09,503.33c-5.56,0-9.65-3.19-9.65-8.4V472.64H427v-3.05h4.44v-8.47l8.68-2.57v11h9.5v3.05h-9.5V493.4c0,3.19,1.74,4.79,4.58,4.79,2.15,0,3.89-1,5.9-3.19l2.22,2.57C449.77,501.18,446,503.33,441.09,503.33Z" transform="translate(0 -427.17)"/><path class="cls-1" d="M472.09,566.75a2.26,2.26,0,0,1-1.6-2.5v-46h-2.06a14.44,14.44,0,0,1-9.07,3.24,12.62,12.62,0,0,1-1.86-.15v2.37l2.64,1.32a2.2,2.2,0,0,1,1.6,2.5v12.86a11,11,0,0,0-7.57-3c-8.82,0-16.18,7.43-16.18,18.47,0,8.89,5.56,16,13.26,16,5.07,0,9-3.61,10.49-6.11v6.11h1.67l11.32-1.94v-1.88Zm-10.34-3.82a8.14,8.14,0,0,1-6.53,3.4c-5.07,0-8.47-5.28-8.47-12.22,0-7.78,3.61-12.78,8.61-12.78a7.18,7.18,0,0,1,6.39,3.54Z" transform="translate(0 -427.17)"/><path class="cls-1" d="M126.09,550.33A22.71,22.71,0,0,0,105,579.15h0c15-9.58,22.1-20.11,25.38-28.55A23.06,23.06,0,0,0,126.09,550.33Z" transform="translate(0 -427.17)"/><path class="cls-1" d="M28.08,579.15A22.71,22.71,0,0,0,7,550.33a22.22,22.22,0,0,0-4.26.27h0c3.29,8.44,10.38,19,25.38,28.55Z" transform="translate(0 -427.17)"/><path class="cls-1" d="M67.68,465.78a3.34,3.34,0,0,0,1.86-2.49,2.7,2.7,0,0,0-2.88-.14,3.3,3.3,0,0,0-1.85,2.49A2.69,2.69,0,0,0,67.68,465.78Z" transform="translate(0 -427.17)"/><path class="cls-1" d="M133,431.83l-1.17.45c-.31.12-31.37,12.67-64,.9C36.15,421.76,6.27,429.75,0,431.87v6.85l1.14-.37c.32-.12,31.9-11.67,64.48.06a98.71,98.71,0,0,0,33.49,5.69,108.55,108.55,0,0,0,33.91-5.34v-6.93Z" transform="translate(0 -427.17)"/><path class="cls-1" d="M66.53,595.28" transform="translate(0 -427.17)"/><path class="cls-1" d="M115.74,448.74,85.22,484.41c.33.25.65.51,1,.78L123.68,451a96.89,96.89,0,0,1,1.46,11.08L89.29,488.3q.42.49.81,1l35.31-19.67v1.08c0,2.72-.19,5.41-.44,8L92.31,492.84c.21.4.4.81.59,1.23l31.28-9.1q-.62,3.81-1.51,7.49l-28.46,5.36c.12.46.22.93.31,1.4l26.74-1.62q-1,3.25-2.21,6.35l-24.15-.64c0,.15,0,.3,0,.45,0,.36,0,.72,0,1.07l22.3,3.57q-1.29,2.81-2.75,5.46l-20.16-5c-.13.52-.27,1-.43,1.53l18.34,7.27c-1,1.65-2.13,3.25-3.27,4.78l-16.65-8.28c-.26.49-.54,1-.83,1.45l14.8,10.23c-1.26,1.49-2.56,2.92-3.91,4.26l-13.47-11c-.39.43-.78.86-1.2,1.27l11.46,12.75c-1.51,1.31-3.06,2.52-4.66,3.65L84.62,523.1c3-13.51-3.14-27.7-6.84-34.25l.34-.52L103.25,450a96.5,96.5,0,0,1-36.54-5.37c-15.95-5.75-31.55-6.14-43.65-4.92l31.87,48.67.58.89A21.64,21.64,0,0,1,55,514l-.7,1h0L38.62,536.76A55.33,55.33,0,0,1,34,533.11l11.46-12.75c-.42-.41-.81-.83-1.2-1.27l-13.47,11c-1.35-1.35-2.66-2.77-3.91-4.26l14.8-10.23c-.29-.47-.57-1-.83-1.45l-16.65,8.28c-1.14-1.53-2.23-3.13-3.27-4.78l18.34-7.27c-.16-.5-.3-1-.43-1.53l-20.16,5c-1-1.77-1.9-3.59-2.75-5.46l22.3-3.57c0-.36,0-.71,0-1.07,0-.15,0-.3,0-.45L14,504q-1.21-3.09-2.21-6.35l26.74,1.62c.09-.47.19-.94.31-1.4l-28.46-5.36c-.6-2.45-1.1-4.94-1.51-7.49l31.28,9.1c.18-.41.38-.82.59-1.23L8.1,478.79c-.25-2.64-.4-5.33-.44-8.05v-1.08L43,489.33q.39-.52.81-1L7.93,462.09A96.89,96.89,0,0,1,9.39,451L46.88,485.2c.31-.27.64-.52,1-.78L11.13,441.5a82.6,82.6,0,0,0-11.13,3H0v92.64c0,.64,0,1.37.08,2.19h0a34.51,34.51,0,0,1,4.34-.51l2.51,5.64c.9,0,1.8.09,2.71.19l.93.13L14,539.7a34.19,34.19,0,0,1,7.72,2.81l-.65,6.15a28.75,28.75,0,0,1,3,2.1l5.55-2.69a34.16,34.16,0,0,1,5.27,6.3l-3.63,5a26.93,26.93,0,0,1,1.55,3.31l6.15.44a33.61,33.61,0,0,1,1.41,8.1l-5.64,2.5c0,.9-.08,1.8-.19,2.71,0,.31-.09.62-.14.93l5.11,3.46a36.77,36.77,0,0,1-1.22,4.07h0a149.41,149.41,0,0,0,22.16,8.65h0l-.39-4.09h-.63a1.65,1.65,0,0,1-1.61-1.52l-.05-.75a1.44,1.44,0,0,1,1.44-1.58h.48L59.38,582a.33.33,0,0,1,.33-.36h13.6a.33.33,0,0,1,.33.36l-.34,3.61h.48a1.44,1.44,0,0,1,1.44,1.58l0,.75a1.64,1.64,0,0,1-1.61,1.52h-.63l-.39,4.09h0a148.54,148.54,0,0,0,22.16-8.65h0a36.14,36.14,0,0,1-1.22-4.07l5.11-3.46c0-.31-.1-.62-.14-.93-.11-.91-.17-1.81-.19-2.71l-5.64-2.5a34.1,34.1,0,0,1,1.41-8.1l6.15-.44a27.74,27.74,0,0,1,1.55-3.31l-3.63-5a34.56,34.56,0,0,1,5.27-6.3l5.55,2.69a26.39,26.39,0,0,1,3-2.1l-.65-6.15A34.68,34.68,0,0,1,119,539.7l3.46,5.11c.31,0,.62-.1.93-.13.91-.11,1.81-.17,2.71-.19l2.51-5.64a34.51,34.51,0,0,1,4.34.51c.06-.82.08-1.55.08-2.19V444.53A89.34,89.34,0,0,1,115.74,448.74ZM78.49,528.39a30.29,30.29,0,0,1-5.4,7.14c-2.62,2.8-5.32,5.69-7,11.16a32.38,32.38,0,0,0-.47,16,.23.23,0,0,1-.1.24.19.19,0,0,1-.1,0,.2.2,0,0,1-.14-.06c-6.1-6.18-9.09-12.27-8.85-18.09.26-6.46,4.33-10.75,8.66-15.31s8.81-9.3,10.63-16.89c1.73-7.21.58-15.37-3.43-24.27a.29.29,0,0,1,0-.3.2.2,0,0,1,.27,0C72.8,488.28,87.6,510.61,78.49,528.39ZM74.72,550.6a24.36,24.36,0,0,0,2,5.6A21.68,21.68,0,0,1,79.38,566H69.3c-.32-1.22-.59-2.46-.8-3.71-.46-2.77-1.43-8.57.43-14.67,1.46-4.8,3.72-7.2,6.34-10,.58-.62,1.19-1.26,1.8-2a.2.2,0,0,1,.27,0,.24.24,0,0,1,.06.29C74.74,541.29,73.85,546.23,74.72,550.6Zm-20.24,2.61a.3.3,0,0,1,.19-.33.27.27,0,0,1,.33.17c1.51,3.82,5.41,8.85,9.19,12.7a.12.12,0,0,1-.07.2H53a.08.08,0,0,1-.06-.12A17.09,17.09,0,0,0,54.48,553.21Zm2.86-32.86a56.86,56.86,0,0,0,3.91-7.52c4-10.11,1.61-25.49-7-41.26-.8.15-3.39,1.19-5-2.73a.27.27,0,0,1,0-.23.21.21,0,0,1,.18-.11h0c.08,0,5.42-.1,10.43-5.33,3.68-3.84,7.23-3.65,10.37-3.48a15.4,15.4,0,0,0,3.86-.11l1.47-.32c3.46-.78,6.44-1.45,8.28,2.53a.29.29,0,0,1,0,.24.19.19,0,0,1-.19.11h-.31c-6.72,0-13.93,8.22-15.22,17.42a18.28,18.28,0,0,0,1.47,10.06c3.74,8.27,4.84,15.79,3.28,22.34-1.63,6.86-5.87,11.34-9.95,15.66-4.47,4.73-9.07,9.59-9.37,17.09a20.45,20.45,0,0,0,.22,3.13c.12.94.15,1.17-.1,1.22h0a.27.27,0,0,1-.15,0c-.41-.34-1.72-6-2-9.15C50.59,531.92,54,526.05,57.34,520.35Zm26,50.11c-1.57,3.39-4.82,6.22-8.05,8.09a3.06,3.06,0,0,1-1.53.42H59.17a2.15,2.15,0,0,1-1.08-.28c-3.32-1.87-6.68-4.76-8.3-8.23a1.13,1.13,0,0,1,1-1.59H82.27A1.13,1.13,0,0,1,83.29,570.46Z" transform="translate(0 -427.17)"/></svg>